<svg width="24" height="24" viewBox="0 0 24 24" fill="none" xmlns="http://www.w3.org/2000/svg">
  <path d="M8.25 3.75V20.25" stroke="white" stroke-width="1.5" stroke-linecap="round" stroke-linejoin="round"/>
  <path d="M8.25 5.75H13.25C13.8467 5.75 14.419 5.98705 14.841 6.40901C15.2629 6.83097 15.5 7.40326 15.5 8V9C15.5 9.59674 15.7371 10.169 16.159 10.591C16.581 11.0129 17.1533 11.25 17.75 11.25H19.75" stroke="white" stroke-width="1.5" stroke-linecap="round" stroke-linejoin="round"/>
  <path d="M8.25 16.75H13.25C13.8467 16.75 14.419 16.513 14.841 16.091C15.2629 15.669 15.5 15.0967 15.5 14.5V13.5C15.5 12.9033 15.7371 12.331 16.159 11.909C16.581 11.4871 17.1533 11.25 17.75 11.25H19.75" stroke="white" stroke-width="1.5" stroke-linecap="round" stroke-linejoin="round"/>
  <path d="M8.25 9.75H4.75" stroke="white" stroke-width="1.5" stroke-linecap="round" stroke-linejoin="round"/>
  <path d="M8.25 13.75H5.75" stroke="white" stroke-width="1.5" stroke-linecap="round" stroke-linejoin="round"/>
</svg> 