<svg width="24" height="24" viewBox="0 0 24 24" fill="none" xmlns="http://www.w3.org/2000/svg">
  <path d="M17.75 9.75C17.75 7.95435 17.0388 6.2319 15.773 4.96609C14.5071 3.70029 12.7846 2.98905 11 2.98905C9.21539 2.98905 7.49287 3.70029 6.22703 4.96609C4.96119 6.2319 4.25 7.95435 4.25 9.75C4.25 15.25 2.75 17.75 2.75 17.75H19.25C19.25 17.75 17.75 15.25 17.75 9.75Z" stroke="white" stroke-width="1.5" stroke-linecap="round" stroke-linejoin="round"/>
  <path d="M13.25 21.25C13.0075 21.5784 12.6857 21.841 12.3107 22.0126C11.9357 22.1843 11.5213 22.2588 11.1 22.2279C10.6787 22.2588 10.2643 22.1843 9.88926 22.0126C9.51426 21.841 9.19253 21.5784 8.95001 21.25" stroke="white" stroke-width="1.5" stroke-linecap="round" stroke-linejoin="round"/>
  <path d="M15.25 4.25C16.7859 4.77191 18.1412 5.78564 19.1112 7.15522C20.0812 8.52481 20.6152 10.1743 20.6375 11.8709C20.6597 13.5676 20.1689 15.2312 19.2354 16.625" stroke="white" stroke-width="1.5" stroke-linecap="round" stroke-linejoin="round"/>
</svg> 