<svg width="24" height="24" viewBox="0 0 24 24" fill="none" xmlns="http://www.w3.org/2000/svg">
  <path d="M19.25 11.75L17.25 15.25L13.75 14.25L11.25 18.75" stroke="white" stroke-width="1.5" stroke-linecap="round" stroke-linejoin="round"/>
  <path d="M9.75 14.75L7.25 17.75" stroke="white" stroke-width="1.5" stroke-linecap="round" stroke-linejoin="round"/>
  <path d="M14.25 6.75C14.8023 6.75 15.25 6.30228 15.25 5.75C15.25 5.19772 14.8023 4.75 14.25 4.75C13.6977 4.75 13.25 5.19772 13.25 5.75C13.25 6.30228 13.6977 6.75 14.25 6.75Z" stroke="white" stroke-width="1.5" stroke-linecap="round" stroke-linejoin="round"/>
  <path d="M9.25 8.75C9.80228 8.75 10.25 8.30228 10.25 7.75C10.25 7.19772 9.80228 6.75 9.25 6.75C8.69772 6.75 8.25 7.19772 8.25 7.75C8.25 8.30228 8.69772 8.75 9.25 8.75Z" stroke="white" stroke-width="1.5" stroke-linecap="round" stroke-linejoin="round"/>
  <path d="M6.25 12.75C6.80228 12.75 7.25 12.3023 7.25 11.75C7.25 11.1977 6.80228 10.75 6.25 10.75C5.69772 10.75 5.25 11.1977 5.25 11.75C5.25 12.3023 5.69772 12.75 6.25 12.75Z" stroke="white" stroke-width="1.5" stroke-linecap="round" stroke-linejoin="round"/>
</svg> 