<svg width="24" height="24" viewBox="0 0 24 24" fill="none" xmlns="http://www.w3.org/2000/svg">
  <path d="M13 4a2 2 0 1 0 0-4 2 2 0 0 0 0 4z" fill="currentColor"/>
  <path d="M4 17l2.5-4 3 3 5-9 2.5 3H21" stroke="currentColor" stroke-width="2" stroke-linecap="round" stroke-linejoin="round"/>
  <path d="M6.5 21c1.4 0 2.5-1.1 2.5-2.5S7.9 16 6.5 16 4 17.1 4 18.5 5.1 21 6.5 21zm11 0c1.4 0 2.5-1.1 2.5-2.5S18.9 16 17.5 16 15 17.1 15 18.5 16.1 21 17.5 21z" stroke="currentColor" stroke-width="2" fill="none"/>
</svg> 